<mxfile host="app.diagrams.net" modified="2022-05-02T00:44:29.741Z" agent="5.0 (Windows NT 10.0; Win64; x64) AppleWebKit/537.36 (KHTML, like Gecko) Chrome/101.0.4951.41 Safari/537.36" etag="atRFSvkQ_NjzDcS7PW9c" version="17.5.0" type="github">
  <diagram id="EDMuKbe8vRzmdor2kzBD" name="Page-1">
    <mxGraphModel dx="805" dy="468" grid="1" gridSize="10" guides="1" tooltips="1" connect="1" arrows="1" fold="1" page="1" pageScale="1" pageWidth="827" pageHeight="1169" math="0" shadow="0">
      <root>
        <mxCell id="0" />
        <mxCell id="1" parent="0" />
        <mxCell id="UJkFk5oTe4aJhqVXtH8_-5" value="" style="edgeStyle=orthogonalEdgeStyle;rounded=0;orthogonalLoop=1;jettySize=auto;html=1;" edge="1" parent="1" source="UJkFk5oTe4aJhqVXtH8_-1" target="UJkFk5oTe4aJhqVXtH8_-4">
          <mxGeometry relative="1" as="geometry" />
        </mxCell>
        <mxCell id="UJkFk5oTe4aJhqVXtH8_-1" value="" style="ellipse;whiteSpace=wrap;html=1;" vertex="1" parent="1">
          <mxGeometry x="510" y="50" width="140" height="110" as="geometry" />
        </mxCell>
        <mxCell id="UJkFk5oTe4aJhqVXtH8_-2" value="" style="shape=parallelogram;perimeter=parallelogramPerimeter;whiteSpace=wrap;html=1;fixedSize=1;" vertex="1" parent="1">
          <mxGeometry x="330" y="250" width="120" height="60" as="geometry" />
        </mxCell>
        <mxCell id="UJkFk5oTe4aJhqVXtH8_-3" value="" style="shape=flexArrow;endArrow=classic;startArrow=classic;html=1;rounded=0;" edge="1" parent="1">
          <mxGeometry width="100" height="100" relative="1" as="geometry">
            <mxPoint x="230" y="250" as="sourcePoint" />
            <mxPoint x="330" y="150" as="targetPoint" />
          </mxGeometry>
        </mxCell>
        <mxCell id="UJkFk5oTe4aJhqVXtH8_-6" value="" style="edgeStyle=orthogonalEdgeStyle;rounded=0;orthogonalLoop=1;jettySize=auto;html=1;" edge="1" parent="1" source="UJkFk5oTe4aJhqVXtH8_-4" target="UJkFk5oTe4aJhqVXtH8_-2">
          <mxGeometry relative="1" as="geometry" />
        </mxCell>
        <mxCell id="UJkFk5oTe4aJhqVXtH8_-4" value="" style="ellipse;whiteSpace=wrap;html=1;" vertex="1" parent="1">
          <mxGeometry x="290" y="50" width="140" height="110" as="geometry" />
        </mxCell>
      </root>
    </mxGraphModel>
  </diagram>
</mxfile>
